:SAMPLES-PER-SECOND 30
:FULLY-SPECIFIED
:DEGREES
573
root  -25.5872 31.3641 -22.2295 -149.867 -16.095 97.7015
Spine  5.07737 -0.913684 -15.8033
Spine1  4.01691 -7.10264 6.75297
Neck  3.97569e-016 0 -2.38542e-015
Head  37.5821 -4.98347 34.6478
R_Clavicle  0.432299 -22.8559 0.572554
R_UpperArm  34.5348 -0.465268 25.1
R_Forearm  3.41714 -42.1785 24.2249
R_Hand  -0.844657 9.1502 -17.9403
L_Clavicle  -0.59738 22.6651 0.863714
L_UpperArm  -12.0988 -2.38499 16.2031
L_Forearm  10.5093 41.5196 40.6496
L_Hand  0.12781 0.217432 2.5216
L_Thigh  -5.29007 -15.7803 -6.29205
L_Calf  4.1679 -1.95761 15.5632
L_Foot  7.20581 12.4953 12.9758
L_Toe0  0.505156 0.0198811 -6.13623
R_Thigh  10.0316 -8.53334 -18.7895
R_Calf  7.16209 -0.0595072 -0.256007
R_Foot  -0.224977 0.333773 2.85571
R_Toe0  9.5636 -2.66165 -2.81867
574
root  -25.9478 31.2796 -21.9605 -150.543 -16.5148 97.7246
Spine  5.52127 0.0286012 -15.6381
Spine1  4.32744 -8.34238 6.05088
Neck  3.97569e-016 0 -2.38542e-015
Head  37.2083 -4.66964 35.6787
R_Clavicle  0.435728 -23.1051 0.600209
R_UpperArm  32.6489 -0.367911 24.4197
R_Forearm  4.37098 -41.6431 23.3874
R_Hand  -0.805314 9.31278 -17.6925
L_Clavicle  -0.592838 22.119 0.731017
L_UpperArm  -10.4023 -2.53242 15.5374
L_Forearm  8.6264 40.506 39.8288
L_Hand  0.117854 0.160844 2.3442
L_Thigh  -5.94454 -15.984 -5.54683
L_Calf  3.85709 -1.95458 15.5332
L_Foot  7.02426 12.3645 12.5663
L_Toe0  0.505156 0.0196764 -6.13623
R_Thigh  11.2072 -9.1129 -20.9154
R_Calf  9.38623 -0.62962 -2.01651
R_Foot  -0.326154 0.186916 3.31825
R_Toe0  11.1533 -2.32649 -7.32891
575
root  -26.3549 31.1835 -21.6687 -151.515 -16.9873 97.7455
Spine  5.94358 1.01979 -15.5452
Spine1  4.62974 -9.64288 5.57301
Neck  3.97569e-016 0 -2.38542e-015
Head  37.132 -4.49018 36.5834
R_Clavicle  0.434728 -23.0117 0.547849
R_UpperArm  30.7636 -0.323964 23.632
R_Forearm  4.99868 -41.0263 22.6755
R_Hand  -0.776684 9.12557 -17.4477
L_Clavicle  -0.589316 21.9393 0.717553
L_UpperArm  -9.08451 -2.74612 15.0913
L_Forearm  7.1426 39.5543 39.2222
L_Hand  0.11819 0.201289 2.33734
L_Thigh  -6.70873 -16.2373 -4.71015
L_Calf  3.31989 -1.96746 15.6124
L_Foot  6.76837 12.2224 11.9379
L_Toe0  0.505156 0.0194818 -6.13623
R_Thigh  12.3403 -9.94347 -22.8821
R_Calf  12.286 -1.06722 -3.36936
R_Foot  -0.851742 -1.68316 2.83249
R_Toe0  12.4477 -2.1654 -9.54289
576
root  -26.82 31.0626 -21.333 -152.668 -17.4193 97.7539
Spine  6.32047 1.9267 -15.4916
Spine1  4.9105 -10.7223 5.25732
Neck  3.97569e-016 0 -2.38542e-015
Head  37.1767 -4.55963 37.2682
R_Clavicle  0.428408 -22.5747 0.468755
R_UpperArm  28.857 -0.282911 22.7763
R_Forearm  5.77374 -40.3194 22.0548
R_Hand  -0.749896 9.01098 -17.2273
L_Clavicle  -0.597668 22.1982 0.679173
L_UpperArm  -8.18567 -3.0119 14.9777
L_Forearm  5.80962 38.6812 38.7878
L_Hand  0.114381 0.32975 2.22172
L_Thigh  -7.62874 -16.3937 -3.64027
L_Calf  2.75587 -1.97457 15.6427
L_Foot  6.49676 12.0857 11.2485
L_Toe0  0.505156 0.0192976 -6.13623
R_Thigh  13.3628 -10.7967 -24.5382
R_Calf  14.4218 -1.16051 -3.65973
R_Foot  -1.39697 -4.54201 0.531292
R_Toe0  15.5336 -3.34766 -7.61127
577
root  -27.3138 30.9639 -20.9306 -153.816 -17.5555 97.7983
Spine  6.51138 2.85106 -15.4735
Spine1  5.132 -11.5516 4.86949
Neck  3.97569e-016 0 -2.38542e-015
Head  37.2951 -4.70939 37.7176
R_Clavicle  0.422938 -22.2299 0.392472
R_UpperArm  26.6295 -0.126375 22.0953
R_Forearm  7.15959 -39.3278 21.4362
R_Hand  -0.714359 9.13008 -17.001
L_Clavicle  -0.60364 22.3923 0.656255
L_UpperArm  -7.70385 -2.99278 15.0691
L_Forearm  4.59085 37.9723 38.5069
L_Hand  0.0961808 0.396432 1.85535
L_Thigh  -8.58653 -16.1184 -2.465
L_Calf  2.39058 -2.01982 15.9248
L_Foot  6.25191 12.0954 10.4832
L_Toe0  0.505156 0.0191243 -6.13623
R_Thigh  14.6558 -11.3241 -26.0466
R_Calf  14.9366 -0.614723 -1.9522
R_Foot  -1.08394 -4.14978 -0.677929
R_Toe0  20.1821 -5.2304 -5.10324
